<svg xmlns="http://www.w3.org/2000/svg" xmlns:xlink="http://www.w3.org/1999/xlink" version="1.1" x="0px" y="0px" viewBox="0 0 100 125" enable-background="new 0 0 100 100" xml:space="preserve"><circle cx="45" cy="31.5" r="1.5"/><circle cx="55" cy="31.5" r="1.5"/><path d="M36.2,27.6c-2.3,0.4-4,2.3-4,4.7c0,2.5,1.9,4.5,4.4,4.7C38,42.6,43,46.8,49,46.8h2c6,0,11-4.2,12.4-9.8  c2.4-0.2,4.4-2.2,4.4-4.7c0-2.4-1.7-4.3-4-4.7V27c0-1.5-0.7-2.7-1.7-3.6c1.9-3.6,1.4-6,0.6-7.4c-1.2-2.1-3.6-3-5.4-3  c-0.6,0-1.6,0.1-2.7,0.2c-3,0.3-8,0.9-9.3-0.7c-0.4-0.5-0.4-1.2-0.1-2.2c0.1-0.2,0-0.5-0.1-0.7c-0.1-0.2-0.4-0.3-0.6-0.3  c-3.4-0.1-6.1,1.4-7.5,4.2c-1.5,3.1-1.2,7.4,0.6,10c-0.9,0.9-1.4,2.1-1.4,3.4V27.6z M36.2,34v1.4c-1.4-0.3-2.5-1.6-2.5-3.2  s1.1-2.8,2.5-3.2V34z M63.8,34v-4.9c1.4,0.3,2.5,1.6,2.5,3.2s-1.1,2.8-2.5,3.2V34z M62.2,27v1.2V34c0,6.2-5,11.2-11.2,11.2h-2  c-6.2,0-11.2-5-11.2-11.2v-5.8V27c0-0.9,0.3-1.7,0.9-2.2c2.4,2,7.1,3,11.5,3c0.8,0,1.6,0,2.4-0.1c4-0.3,7-1.4,8.6-3.1  C61.8,25.2,62.2,26,62.2,27z M38.4,14.3c0.7-1.4,2.2-3.1,5.2-3.3c-0.2,1,0,1.9,0.6,2.6c1.8,2.2,6.9,1.6,10.6,1.2  c1.1-0.1,2-0.2,2.5-0.2c1.3,0,3.2,0.7,4.1,2.2c0.9,1.5,0.7,3.5-0.6,5.8c-0.1,0.1-0.1,0.2-0.2,0.3c-0.2,0.3-0.5,0.6-0.8,0.9  c-1.4,1.2-4,2-7.3,2.3c-5,0.4-10-0.5-12.5-2.2c-0.4-0.3-0.7-0.6-1-0.9c0,0,0,0,0,0c-0.1-0.1-0.1-0.2-0.2-0.3  C37.3,20.6,37.1,16.9,38.4,14.3z"/><path d="M52.2,38.8c-1.3,0.7-3.2,0.5-4.2-0.4c-0.3-0.3-0.8-0.2-1.1,0.1c-0.3,0.3-0.2,0.8,0.1,1.1c0.8,0.8,2.1,1.2,3.4,1.2  c0.9,0,1.7-0.2,2.5-0.6c0.4-0.2,0.5-0.6,0.3-1C53,38.8,52.5,38.6,52.2,38.8z"/><path d="M90,86.2H75.8V60c0-2.1-1.7-3.8-3.8-3.8h-2.3c-0.6-3.8-4.2-6.4-11.2-8.1c-0.2-0.1-0.4,0-0.6,0.1c-0.2,0.1-0.3,0.3-0.3,0.5  c-0.3,2.5-5.2,5.5-7.5,6.7c-2.3-1.2-7.2-4.2-7.5-6.7c0-0.2-0.1-0.4-0.3-0.5c-0.2-0.1-0.4-0.2-0.6-0.1c-7.1,1.7-10.7,4.3-11.2,8.1H28  c-2.1,0-3.8,1.7-3.8,3.8v26.2H10c-0.4,0-0.8,0.3-0.8,0.8s0.3,0.8,0.8,0.8h15h50h15c0.4,0,0.8-0.3,0.8-0.8S90.4,86.2,90,86.2z   M74.2,86.2H25.8V60c0-1.2,1-2.2,2.2-2.2h2.2H31h0.8h36.5H69h0.8H72c1.2,0,2.2,1,2.2,2.2V86.2z"/><circle cx="50" cy="70" r="2.5"/></svg>